<svg xmlns="http://www.w3.org/2000/svg" viewBox="0 0 600 400" width="600" height="400">
  <defs>
    <linearGradient id="bg5" x1="0%" y1="0%" x2="100%" y2="100%">
      <stop offset="0%" style="stop-color:#1a2e1a"/>
      <stop offset="100%" style="stop-color:#0a2a1f"/>
    </linearGradient>
  </defs>
  <rect width="600" height="400" fill="url(#bg5)" rx="12"/>
  <!-- Photo grid -->
  <rect x="30" y="30" width="170" height="120" rx="8" fill="#169179" opacity="0.4" stroke="#41CE22" stroke-width="1"/>
  <rect x="215" y="30" width="170" height="120" rx="8" fill="#169179" opacity="0.3" stroke="#41CE22" stroke-width="1"/>
  <rect x="400" y="30" width="170" height="120" rx="8" fill="#169179" opacity="0.4" stroke="#41CE22" stroke-width="1"/>
  <!-- Photo icons -->
  <text x="115" y="100" text-anchor="middle" font-size="40" fill="#41CE22" opacity="0.6">📸</text>
  <text x="300" y="100" text-anchor="middle" font-size="40" fill="#41CE22" opacity="0.6">🎙️</text>
  <text x="485" y="100" text-anchor="middle" font-size="40" fill="#41CE22" opacity="0.6">🎵</text>
  <!-- Partners row -->
  <text x="300" y="200" text-anchor="middle" font-family="Arial Black" font-size="14" fill="#41CE22">NOS PARTENAIRES</text>
  <rect x="30" y="215" width="120" height="50" rx="8" fill="#fff" opacity="0.08" stroke="#41CE22" stroke-width="1"/>
  <rect x="165" y="215" width="120" height="50" rx="8" fill="#fff" opacity="0.08" stroke="#41CE22" stroke-width="1"/>
  <rect x="300" y="215" width="120" height="50" rx="8" fill="#fff" opacity="0.08" stroke="#41CE22" stroke-width="1"/>
  <rect x="435" y="215" width="135" height="50" rx="8" fill="#fff" opacity="0.08" stroke="#41CE22" stroke-width="1"/>
  <text x="90" y="246" text-anchor="middle" font-family="Arial Black" font-size="10" fill="#aaa">PARTENAIRE 1</text>
  <text x="225" y="246" text-anchor="middle" font-family="Arial Black" font-size="10" fill="#aaa">PARTENAIRE 2</text>
  <text x="360" y="246" text-anchor="middle" font-family="Arial Black" font-size="10" fill="#aaa">PARTENAIRE 3</text>
  <text x="502" y="246" text-anchor="middle" font-family="Arial Black" font-size="10" fill="#aaa">PARTENAIRE 4</text>
  <!-- CTA -->
  <rect x="170" y="300" width="260" height="50" rx="25" fill="#41CE22" opacity="0.9"/>
  <text x="300" y="332" text-anchor="middle" font-family="Arial Black" font-size="14" fill="#fff">Voir la galerie photos</text>
</svg>
